<?xml version="1.0" encoding="UTF-8" standalone="no"?>
<svg
   xmlns:osb="http://www.openswatchbook.org/uri/2009/osb"
   xmlns:dc="http://purl.org/dc/elements/1.1/"
   xmlns:cc="http://creativecommons.org/ns#"
   xmlns:rdf="http://www.w3.org/1999/02/22-rdf-syntax-ns#"
   xmlns:svg="http://www.w3.org/2000/svg"
   xmlns="http://www.w3.org/2000/svg"
   xmlns:sodipodi="http://sodipodi.sourceforge.net/DTD/sodipodi-0.dtd"
   xmlns:inkscape="http://www.inkscape.org/namespaces/inkscape"
   viewBox="0 0 878 660"
   x="0px"
   y="0px"
   version="1.1"
   id="svg6"
   sodipodi:docname="noun_Learning_3378674.svg"
   width="878"
   height="660"
   inkscape:version="1.0 (4035a4fb49, 2020-05-01)">
  <metadata
     id="metadata12">
    <rdf:RDF>
      <cc:Work
         rdf:about="">
        <dc:format>image/svg+xml</dc:format>
        <dc:type
           rdf:resource="http://purl.org/dc/dcmitype/StillImage" />
        <dc:title></dc:title>
      </cc:Work>
    </rdf:RDF>
  </metadata>
  <defs
     id="defs10">
    <linearGradient
       id="linearGradient2785"
       osb:paint="solid">
      <stop
         style="stop-color:#000000;stop-opacity:1;"
         offset="0"
         id="stop2783" />
    </linearGradient>
  </defs>
  <sodipodi:namedview
     inkscape:document-rotation="0"
     pagecolor="#ffffff"
     bordercolor="#666666"
     borderopacity="1"
     objecttolerance="10"
     gridtolerance="10"
     guidetolerance="10"
     inkscape:pageopacity="0"
     inkscape:pageshadow="2"
     inkscape:window-width="1600"
     inkscape:window-height="837"
     id="namedview8"
     showgrid="false"
     inkscape:zoom="1.046875"
     inkscape:cx="455.85323"
     inkscape:cy="73.044239"
     inkscape:window-x="-8"
     inkscape:window-y="-8"
     inkscape:window-maximized="1"
     inkscape:current-layer="g4" />
  <g
     id="g4"
     transform="translate(-16,-55.910987)"
     style="fill:#000000;fill-opacity:1">
    <path
       d="m 703.57408,161.58323 a 28.022,28.022 0 0 0 -25.589,-16.628 h -19 v -24 a 39.976,39.976 0 0 0 -17.121,-32.782001 24.008,24.008 0 1 0 -45.746,-0.009 39.976,39.976 0 0 0 -17.133,32.791001 v 24 h -16.485 a 27.99,27.99 0 0 0 -18.438,6.928 l -17.327,15.161 a 39.99,39.99 0 0 0 -75.75,17.911 v 16 h -7.437 a 23.952,23.952 0 0 0 -19.969,10.688 l -39.125,58.686 a 32.517,32.517 0 0 0 -0.926,34.626 h -13.919 a 23.955,23.955 0 0 0 -0.97,-18.341 7.972,7.972 0 0 0 2.346,-5.659 v -32 a 8,8 0 0 0 -8,-8 h -22.556 l 6.447,-38.685 a 8,8 0 0 0 -7.891,-9.315 h -5.754 l 5.515,-22.06 a 8,8 0 1 0 -15.522,-3.88 l -6.485,25.94 h -3.988 l -6.177,-18.53 a 8,8 0 1 0 -15.178,5.06 l 4.489,13.47 h -4.9 a 8,8 0 0 0 -7.891,9.315 l 6.447,38.685 h -6.556 a 23.993,23.993 0 0 0 -21.654,34.341 7.972,7.972 0 0 0 -2.346,5.659 v 24 a 8,8 0 0 0 -8,8 v 48 a 8,8 0 0 0 8,8 h 16 v 88 a 8,8 0 0 0 8,8 h 416 a 8,8 0 0 0 8,-8 v -88 h 16 a 8,8 0 0 0 8,-8 v -48 a 8,8 0 0 0 -8,-8 h -0.022 a 39.788,39.788 0 0 0 8.022,-24 v -56 a 8.007,8.007 0 0 0 -0.689,-3.249 z m -84.589,-88.628001 a 8.009,8.009 0 0 1 8,8 c 0,0.27 -0.025,0.533 -0.051,0.8 a 40.108,40.108 0 0 0 -15.907,0 c -0.025,-0.257 -0.042,-0.521 -0.042,-0.8 a 8.009,8.009 0 0 1 8,-8 z m -24,48.000001 a 24,24 0 0 1 47.983,-0.683 17.779,17.779 0 0 1 -11.071,-9.2 l -0.844,-1.689 a 8,8 0 0 0 -7.156,-4.428 h -0.064 a 8,8 0 0 0 -7.149,4.539 l -0.952,1.984 a 17.982,17.982 0 0 1 -16.129,10.152 h -4.618 z m 0,16.675 h 4.618 a 34.067,34.067 0 0 0 24.449,-10.45 33.614,33.614 0 0 0 18.933,9.421 v 16.354 a 24,24 0 0 1 -48,0 z m -40.388,26.294 a 12,12 0 0 1 7.9,-2.969 h 17.29 a 40,40 0 0 0 78.39,0 h 19.808 a 12.01,12.01 0 0 1 10.966,7.126 l 25.28,56.874 h -31.246 v -32 a 8,8 0 0 0 -16,0 v 73.223 l -26.274,4.377 a 25.917,25.917 0 0 0 -21.726,25.648 v 8.752 h -20.543 a 32.517,32.517 0 0 0 -0.926,-34.626 l -26.531,-39.796 v -37.578 a 8,8 0 0 0 -16,0 v 14.642 a 23.94,23.94 0 0 0 -16.563,-6.642 h -7.437 v -16 c 0,-0.121 -0.008,-0.241 -0.009,-0.362 z m -0.956,112.593 -10.665,-16 22.377,-9.589 18.85,28.274 a 16.563,16.563 0 0 1 -13.781,25.753 h -55.437 v -10 a 6.006,6.006 0 0 1 6,-6 h 26 a 8,8 0 0 0 6.656,-12.438 z m -62.656,-115.562 a 24.04,24.04 0 0 1 22.853,16.675 h -12.853 a 35.261,35.261 0 0 1 -25.464,-11.01 23.888,23.888 0 0 1 15.464,-5.665 z m -24,24 a 24.126,24.126 0 0 1 0.348,-4.049 51.374,51.374 0 0 0 33.652,12.724 h 14 v 7.325 a 24,24 0 0 1 -48,0 z m -30.094,35.562 a 7.987,7.987 0 0 1 6.657,-3.562 h 10.787 a 40,40 0 0 0 73.324,0 h 10.763 a 7.987,7.987 0 0 1 6.657,3.562 l 11.248,16.873 -28.493,12.211 a 8,8 0 0 0 -3.5,11.792 l 7.703,11.562 h -11.052 a 22.025,22.025 0 0 0 -22,22 v 10 h -16 v -10 a 21.9,21.9 0 0 0 -5.266,-14.259 l -2.843,-17.056 a 8,8 0 1 0 -15.782,2.63 l 1.114,6.685 h -10.275 l 7.708,-11.562 a 8,8 0 0 0 -3.5,-11.792 l -28.493,-12.211 z m -39.124,58.687 18.85,-28.274 22.377,9.589 -10.665,16 a 8,8 0 0 0 6.656,12.436 h 26 a 6.006,6.006 0 0 1 6,6 v 10 h -55.437 a 16.563,16.563 0 0 1 -13.781,-25.751 z m -68.226,-70.249 -5.333,32 h -18.446 l -5.333,-32 z m -46.556,48 h 72 v 16 h -72 a 8,8 0 0 1 0,-16 z m -8,32 h 72 a 8,8 0 0 1 0,16 h -72 z m 48,160 h -32 v -80 h 32 z m 320,0 h -304 v -80 h 304 z m 48,0 h -32 v -80 h 32 z m 24,-96 h -448 v -32 h 448 z m 0,-72 a 24.027,24.027 0 0 1 -24,24 h -56 v -8.752 a 9.967,9.967 0 0 1 8.356,-9.863 l 32.959,-5.493 a 8,8 0 0 0 6.685,-7.892 v -32 h 32 z"
       id="path2"
       style="fill:#f7567c;fill-opacity:1;stroke:none;stroke-width:1;stroke-miterlimit:4;stroke-dasharray:none;stroke-opacity:1" />
  </g>
</svg>
