<?xml version="1.0" encoding="UTF-8" standalone="no"?>
<svg
   xmlns:dc="http://purl.org/dc/elements/1.1/"
   xmlns:cc="http://creativecommons.org/ns#"
   xmlns:rdf="http://www.w3.org/1999/02/22-rdf-syntax-ns#"
   xmlns:svg="http://www.w3.org/2000/svg"
   xmlns="http://www.w3.org/2000/svg"
   xmlns:sodipodi="http://sodipodi.sourceforge.net/DTD/sodipodi-0.dtd"
   xmlns:inkscape="http://www.inkscape.org/namespaces/inkscape"
   viewBox="0 0 79.703148 99.999107"
   x="0px"
   y="0px"
   version="1.1"
   id="svg18"
   sodipodi:docname="artes.svg"
   width="79.703148"
   height="99.999107"
   inkscape:version="1.0 (4035a4fb49, 2020-05-01)">
  <metadata
     id="metadata24">
    <rdf:RDF>
      <cc:Work
         rdf:about="">
        <dc:format>image/svg+xml</dc:format>
        <dc:type
           rdf:resource="http://purl.org/dc/dcmitype/StillImage" />
        <dc:title>School</dc:title>
      </cc:Work>
    </rdf:RDF>
  </metadata>
  <defs
     id="defs22" />
  <sodipodi:namedview
     inkscape:document-rotation="0"
     pagecolor="#ffffff"
     bordercolor="#666666"
     borderopacity="1"
     objecttolerance="10"
     gridtolerance="10"
     guidetolerance="10"
     inkscape:pageopacity="0"
     inkscape:pageshadow="2"
     inkscape:window-width="1600"
     inkscape:window-height="837"
     id="namedview20"
     showgrid="false"
     inkscape:zoom="8.375"
     inkscape:cx="29.30519"
     inkscape:cy="54.328358"
     inkscape:window-x="-8"
     inkscape:window-y="-8"
     inkscape:window-maximized="1"
     inkscape:current-layer="svg18" />
  <title
     id="title2">School</title>
  <g
     data-name="23. Art"
     id="g16"
     style="fill:#5d576b;fill-opacity:1"
     transform="matrix(1.5970124,0,0,1.5970124,-11.29849,-1.8656542)">
    <path
       d="m 27.89576,57 c 7.74752,0 13.159,-2.6543 13.159,-6.45459 0,-1.84521 -1.74229,-3.14355 -3.426,-4.39893 -1.24421,-0.92724 -2.65445,-1.978 -2.66715,-2.85693 -0.0073,-0.58118 0.61265,-1.22095 1.17963,-1.68561 a 0.97344,0.97344 0 0 0 1.04517,-0.18866 2.20138,2.20138 0 0 1 0.22249,0.12714 C 42.66744,46.81586 53.15,57 55.6718,57 a 1.3305,1.3305 0 0 0 0.95709,-0.38232 c 0.618,-0.62439 1.66623,-1.70484 -8.21917,-12.38276 1.41524,-1.61712 2.59286,-4.59625 2.59286,-10.05328 C 51.00258,16.39941 43.01285,7 27.89576,7 12.67318,7 7,23.00342 7,33.09082 7,53.894 20.09159,57 27.89576,57 Z m 0,-48 c 14.0057,0 21.1067,8.47217 21.1067,25.18164 0,4.07318 -0.69376,7.0141 -1.95977,8.58954 -1.58456,-1.68231 -3.416,-3.58038 -5.52229,-5.71655 l 0.02362,-0.02387 a 1.00023,1.00023 0 0 0 0,-1.40722 l -2.1554,-2.17627 a 1.03051,1.03051 0 0 0 -1.422,0 l -0.0076,0.0077 -2.90215,-2.93091 0.02191,-0.02216 a 1.00021,1.00021 0 0 0 0,-1.40722 l -2.1554,-2.17627 a 1.01952,1.01952 0 0 0 -1.22016,-0.13111 6.21661,6.21661 0 0 0 -1.65305,-2.77075 9.54592,9.54592 0 0 0 -8.05461,-2.9624 c 2.4e-4,-0.01837 0.0053,-0.03577 0.0053,-0.0542 a 4.0448,4.0448 0 1 0 -1.39278,3.0097 c 2.14343,1.25745 2.27107,2.07062 2.4153,2.99323 a 4.44711,4.44711 0 0 0 1.295,2.77344 6.148,6.148 0 0 0 2.75419,1.67535 0.98622,0.98622 0 0 0 0.119,1.2265 l 2.1554,2.17627 a 1.00094,1.00094 0 0 0 1.422,0 l 0.0069,-0.007 2.90214,2.93091 -0.02118,0.02142 a 1.00022,1.00022 0 0 0 0,1.40723 l 1.014,1.0246 a 4.083,4.083 0 0 0 -1.70841,3.08575 c 0.02539,1.86524 1.77647,3.17041 3.47091,4.43262 1.22858,0.916 2.62124,1.9541 2.62124,2.79541 C 39.05461,53.00146 34.04846,55 27.89576,55 19.27611,55 9.00012,51.19873 9.00012,33.09082 9.00012,23.77686 14.1303,9 27.89576,9 Z m 4.28736,24.42578 1.4659,-1.48047 2.90252,2.93115 -1.46591,1.48047 z m 0.75492,-3.60547 -2.87321,2.90186 -8.6e-4,0.0013 -0.006,0.006 -0.74809,-0.75488 2.90252,-2.93115 0.74809,0.75488 L 32.94,29.819 Z m -7.19768,-1.45117 a 2.50369,2.50369 0 0 1 -0.74126,-1.6748 4.94518,4.94518 0 0 0 -2.27748,-3.68653 7.678,7.678 0 0 1 5.9066,2.416 3.69314,3.69314 0 0 1 1.23543,3.14892 l -1.03034,1.041 a 3.61048,3.61048 0 0 1 -3.09295,-1.24459 z m 10.05564,10.11322 6.1e-4,-4.3e-4 2.881,-2.90966 0.74809,0.75488 -2.90349,2.93164 -0.74712,-0.75537 z M 19.60328,21.626 a 1.002,1.002 0 0 0 -0.60258,0.88818 0.98678,0.98678 0 0 0 0.022,0.191 2.05223,2.05223 0 0 1 -2.43618,-0.29114 2.01264,2.01264 0 1 1 3.34279,-0.91174 c -0.18369,0.06362 -0.29686,0.1111 -0.32603,0.1237 z m 19.0464,18.32751 1.46377,-1.47815 c 5.86552,5.9643 11.82278,12.51642 14.01724,15.6355 -3.09582,-2.22408 -9.58235,-8.2405 -15.48101,-14.15737 z"
       id="path4"
       style="fill:#5d576b;fill-opacity:1" />
    <path
       d="M 27.00117,53 A 5,5 0 1 0 23.46581,51.53564 4.96617,4.96617 0 0 0 27.00117,53 Z m 0,-8 a 3,3 0 0 1 2.12122,5.12158 3.07283,3.07283 0 0 1 -4.24244,0 A 3,3 0 0 1 27.00117,45 Z"
       id="path6"
       style="fill:#5d576b;fill-opacity:1" />
    <path
       d="M 36.0017,20 A 4.00113,4.00113 0 1 0 33.17341,18.82813 3.97338,3.97338 0 0 0 36.0017,20 Z m -1.41415,-5.41406 a 1.99985,1.99985 0 1 1 2.8283,2.82812 2.04728,2.04728 0 0 1 -2.8283,0 1.99919,1.99919 0 0 1 0,-2.82812 z"
       id="path8"
       style="fill:#5d576b;fill-opacity:1" />
    <path
       d="M 38.00182,24 A 4.00115,4.00115 0 1 0 39.17376,21.17188 3.97175,3.97175 0 0 0 38.00182,24 Z m 2.58609,-1.41406 a 1.9998429,1.9998429 0 1 1 2.82829,2.82812 2.04727,2.04727 0 0 1 -2.82829,0 1.99916,1.99916 0 0 1 0,-2.82812 z"
       id="path10"
       style="fill:#5d576b;fill-opacity:1" />
    <path
       d="M 26.00111,19 A 4.00113,4.00113 0 1 0 23.17282,17.82813 3.97334,3.97334 0 0 0 26.00111,19 Z M 24.587,13.58594 a 1.9998429,1.9998429 0 1 1 2.82829,2.82812 2.04727,2.04727 0 0 1 -2.82829,0 1.99919,1.99919 0 0 1 0,-2.82812 z"
       id="path12"
       style="fill:#5d576b;fill-opacity:1" />
    <path
       d="M 12.17218,33.82813 A 3.99836,3.99836 0 1 0 11.00023,31 a 3.97338,3.97338 0 0 0 1.17195,2.82813 z m 1.41414,-4.24219 a 1.9998429,1.9998429 0 1 1 2.82829,2.82812 2.04727,2.04727 0 0 1 -2.82829,0 1.99919,1.99919 0 0 1 0,-2.82812 z"
       id="path14"
       style="fill:#5d576b;fill-opacity:1" />
  </g>
</svg>
