<?xml version="1.0" encoding="UTF-8" standalone="no"?>
<svg
   xmlns:dc="http://purl.org/dc/elements/1.1/"
   xmlns:cc="http://creativecommons.org/ns#"
   xmlns:rdf="http://www.w3.org/1999/02/22-rdf-syntax-ns#"
   xmlns:svg="http://www.w3.org/2000/svg"
   xmlns="http://www.w3.org/2000/svg"
   xmlns:sodipodi="http://sodipodi.sourceforge.net/DTD/sodipodi-0.dtd"
   xmlns:inkscape="http://www.inkscape.org/namespaces/inkscape"
   version="1.1"
   x="0px"
   y="0px"
   viewBox="0 0 79.703148 99.999108"
   xml:space="preserve"
   id="svg4"
   sodipodi:docname="biologia.svg"
   width="79.703148"
   height="99.999107"
   inkscape:version="1.0 (4035a4fb49, 2020-05-01)"><metadata
     id="metadata10"><rdf:RDF><cc:Work
         rdf:about=""><dc:format>image/svg+xml</dc:format><dc:type
           rdf:resource="http://purl.org/dc/dcmitype/StillImage" /><dc:title></dc:title></cc:Work></rdf:RDF></metadata><defs
     id="defs8" /><sodipodi:namedview
     inkscape:document-rotation="0"
     pagecolor="#ffffff"
     bordercolor="#666666"
     borderopacity="1"
     objecttolerance="10"
     gridtolerance="10"
     guidetolerance="10"
     inkscape:pageopacity="0"
     inkscape:pageshadow="2"
     inkscape:window-width="1600"
     inkscape:window-height="837"
     id="namedview6"
     showgrid="false"
     inkscape:zoom="3.5733333"
     inkscape:cx="24.569446"
     inkscape:cy="33.97388"
     inkscape:window-x="-8"
     inkscape:window-y="-8"
     inkscape:window-maximized="1"
     inkscape:current-layer="svg4" /><path
     d="M 55.898974,36.903581 40.369183,1.2764148 c -0.249139,-0.581329 -0.83047,-0.99656405 -1.494846,-0.99656405 -0.664376,0 -1.245704,0.41523505 -1.494846,0.99656405 L 31.981437,13.567372 c -0.16609,0.415235 -0.16609,0.83047 -0.08304,1.245705 l 2.076175,5.979384 h -4.15235 c -0.664376,0 -1.245707,0.415235 -1.494846,0.996566 L 21.68361,36.903581 c -6.311574,14.450181 -3.155787,30.893487 7.972512,42.021786 l 7.474231,7.474231 V 98.27532 c 0,0.913518 0.747424,1.660939 1.660941,1.660939 0.913516,0 1.660939,-0.747421 1.660939,-1.660939 V 86.399598 l 7.474231,-7.474231 C 59.137808,67.797068 62.210548,51.270714 55.898974,36.903581 Z M 40.535278,81.665918 V 71.285041 l 5.896337,-6.8929 c 0.581329,-0.664376 0.498282,-1.743988 -0.16609,-2.325316 -0.664376,-0.581329 -1.743988,-0.498282 -2.325316,0.16609 l -3.32188,3.986255 V 52.848604 c 0,-0.913518 -0.747423,-1.660941 -1.66094,-1.660941 -0.913516,0 -1.660939,0.747423 -1.660939,1.660941 V 81.665918 L 32.230576,76.60005 C 22.098842,66.468316 19.275244,51.353762 25.005487,38.232333 l 6.145479,-14.11799 h 5.231962 c 0.498282,0 1.07961,-0.249142 1.328752,-0.664378 0.332189,-0.415234 0.415234,-0.996562 0.249142,-1.494846 L 35.303316,14.397842 38.874337,6.0931412 52.909281,38.232333 c 5.730243,13.204474 2.906646,28.235983 -7.225089,38.367717 z"
     id="path2"
     style="fill:#5d576b;fill-opacity:1;stroke-width:0.83047" /></svg>
