<?xml version="1.0" encoding="UTF-8" standalone="no"?>
<svg
   xmlns:dc="http://purl.org/dc/elements/1.1/"
   xmlns:cc="http://creativecommons.org/ns#"
   xmlns:rdf="http://www.w3.org/1999/02/22-rdf-syntax-ns#"
   xmlns:svg="http://www.w3.org/2000/svg"
   xmlns="http://www.w3.org/2000/svg"
   xmlns:sodipodi="http://sodipodi.sourceforge.net/DTD/sodipodi-0.dtd"
   xmlns:inkscape="http://www.inkscape.org/namespaces/inkscape"
   inkscape:version="1.0 (4035a4fb49, 2020-05-01)"
   height="99.999107"
   width="79.703148"
   sodipodi:docname="fisica.svg"
   id="svg26"
   y="0px"
   x="0px"
   version="1.1"
   viewBox="0 0 79.703148 99.999108">
  <metadata
     id="metadata32">
    <rdf:RDF>
      <cc:Work
         rdf:about="">
        <dc:format>image/svg+xml</dc:format>
        <dc:type
           rdf:resource="http://purl.org/dc/dcmitype/StillImage" />
        <dc:title>Education-29</dc:title>
      </cc:Work>
    </rdf:RDF>
  </metadata>
  <defs
     id="defs30" />
  <sodipodi:namedview
     inkscape:current-layer="svg26"
     inkscape:window-maximized="1"
     inkscape:window-y="-8"
     inkscape:window-x="-8"
     inkscape:cy="30.066197"
     inkscape:cx="149.68"
     inkscape:zoom="1.7807309"
     showgrid="false"
     id="namedview28"
     inkscape:window-height="837"
     inkscape:window-width="1600"
     inkscape:pageshadow="2"
     inkscape:pageopacity="0"
     guidetolerance="10"
     gridtolerance="10"
     objecttolerance="10"
     borderopacity="1"
     bordercolor="#666666"
     pagecolor="#ffffff"
     inkscape:document-rotation="0" />
  <title
     id="title2">Education-29</title>
  <desc
     id="desc4">Created with Sketch.</desc>
  <g
     transform="matrix(0.26419892,0,0,0.28158347,0.34492405,7.6310418)"
     style="fill:#5d576b;fill-opacity:1"
     id="g24"
     fill-rule="evenodd"
     fill="none"
     stroke-width="1"
     stroke="none">
    <g
       style="fill:#5d576b;fill-opacity:1"
       id="g22"
       fill-rule="nonzero"
       fill="#000000">
      <path
         style="fill:#5d576b;fill-opacity:1"
         id="path6"
         d="M 150.46,300.11 C 119,300.11 102,223 102,150.46 102,77.92 119,0.82 150.44,0.82 c 31.44,0 48.44,77.1 48.44,149.64 0,72.54 -16.96,149.65 -48.42,149.65 z m 0,-287 c -15.08,0 -36.11,52.24 -36.11,137.31 0,85.07 21,137.31 36.11,137.31 15.11,0 36.11,-52.24 36.11,-137.31 0,-85.07 -21.03,-137.27 -36.11,-137.27 z" />
      <path
         style="fill:#5d576b;fill-opacity:1"
         id="path8"
         d="m 150.46,198.91 c -72.54,0 -149.64,-17 -149.64,-48.44 0,-31.44 77.1,-48.47 149.64,-48.47 72.54,0 149.65,17 149.65,48.44 0,31.44 -77.11,48.47 -149.65,48.47 z m 0,-84.55 c -85.07,0 -137.31,21 -137.31,36.11 0,15.11 52.24,36.11 137.31,36.11 85.07,0 137.32,-21 137.32,-36.11 0,-15.11 -52.24,-36.11 -137.32,-36.11 z" />
      <path
         style="fill:#5d576b;fill-opacity:1"
         id="path10"
         d="m 239.56,262.33 c -29.86,0 -81.64,-35.91 -123.35,-77.62 C 88.7,157.2 65.96,128.12 52.21,102.8 37,75 34.41,54.88 44.65,44.65 c 22.25,-22.26 88.76,20.26 140.07,71.56 51.28,51.3 93.8,117.79 71.56,140.07 -4.16,4.16 -9.86,6.05 -16.72,6.05 z M 61.56,50.79 c -3.7,0 -6.48,0.87 -8.2,2.58 -4.41,4.41 -4.2,18.16 9.63,43.54 13.24,24.3 35.23,52.39 61.93,79.08 60.15,60.15 111.93,82.22 122.63,71.57 C 258.25,236.91 236.16,185.09 176,124.93 125.51,74.45 80.9,50.79 61.57,50.79 Z" />
      <path
         style="fill:#5d576b;fill-opacity:1"
         id="path12"
         d="m 59.19,262.32 h -0.54 c -5.8,-0.5 -10.51,-2.52 -14,-6 C 22.4,234 64.91,167.51 116.21,116.21 c 27.78,-27.78 57.12,-50.66 82.6,-64.41 1.93817,-1.045002 4.28661,-0.976624 6.16069,0.179376 1.87408,1.156 2.98908,3.223998 2.925,5.425 -0.0641,2.201002 -1.29752,4.200622 -3.23569,5.245624 -24.45,13.2 -52.77,35.32 -79.74,62.28 -60.16,60.16 -82.23,112 -71.56,122.63 1.38,1.38 3.52,2.2 6.34,2.45 3.258917,0.31957 5.700554,3.12932 5.562353,6.40095 -0.1382,3.27163 -2.808095,5.86545 -6.082353,5.90905 z" />
      <path
         style="fill:#5d576b;fill-opacity:1"
         id="path14"
         d="m 93.32,252.9 c -2.865085,-0.003 -5.351154,-1.97785 -6.002186,-4.76799 C 86.666781,245.34187 88.022101,242.47067 90.59,241.2 115.87,228.76 147,205 176,176 236.16,115.84 258.22,64 247.56,53.38 c -3.17,-3.17 -9.53,-2.79 -14.31,-1.93 -2.16682,0.401924 -4.38346,-0.382666 -5.81494,-2.058221 -1.43149,-1.675556 -1.86034,-3.987521 -1.125,-6.065 0.73533,-2.07748 2.52312,-3.604855 4.68994,-4.006779 11.15,-2.07 19.66,-0.25 25.25,5.34 22.25,22.24 -20.26,88.77 -71.56,140.06 -29.92,29.91 -62.23,54.53 -88.68,67.56 -0.838216,0.40751 -1.757976,0.6195 -2.69,0.62 z" />
      <path
         style="fill:#5d576b;fill-opacity:1"
         id="path16"
         d="m 151.13,175.25 c -12.12265,0 -21.95,-9.82735 -21.95,-21.95 0,-12.12265 9.82735,-21.95 21.95,-21.95 12.12265,0 21.95,9.82735 21.95,21.95 -0.0275,12.11124 -9.83876,21.92251 -21.95,21.95 z m 0,-31.57 c -5.31298,0 -9.62,4.30702 -9.62,9.62 0,5.31298 4.30702,9.62 9.62,9.62 5.31298,0 9.62,-4.30702 9.62,-9.62 0,-5.31298 -4.30702,-9.62 -9.62,-9.62 z" />
      <path
         style="fill:#5d576b;fill-opacity:1"
         id="path18"
         d="m 78.88,275.06 c -12.12265,0 -21.95,-9.82735 -21.95,-21.95 0,-12.12265 9.82735,-21.95 21.95,-21.95 12.12265,0 21.95,9.82735 21.95,21.95 -0.0275,12.11124 -9.838757,21.92251 -21.95,21.95 z m 0,-31.56 c -5.306151,0.006 -9.603678,4.31051 -9.599998,9.61666 0.0037,5.30615 4.307174,9.60517 9.613328,9.60333 5.306154,-0.002 9.606667,-4.30384 9.60667,-9.60999 -0.0055,-5.30907 -4.310924,-9.61 -9.62,-9.61 z" />
      <path
         style="fill:#5d576b;fill-opacity:1"
         id="path20"
         d="m 217.53,73.29 c -8.87885,0.004 -16.88569,-5.341335 -20.28628,-13.543167 -3.4006,-8.201832 -1.52512,-17.644558 4.75175,-23.924288 6.27687,-6.27973 15.71874,-8.159512 23.92212,-4.762656 C 234.12097,34.456745 239.47,42.461144 239.47,51.34 c -0.0275,12.107352 -9.83266,21.917011 -21.94,21.95 z m 0,-31.57 c -3.89183,-0.004 -7.4027,2.337225 -8.89485,5.931651 -1.49214,3.594425 -0.67157,7.733798 2.07895,10.487173 2.75051,2.753374 6.88903,3.578255 10.485,2.08985 3.59598,-1.488406 5.9409,-4.996838 5.9409,-8.888674 0,-5.309077 -4.30093,-9.614481 -9.61,-9.62 z" />
    </g>
  </g>
</svg>
