<?xml version="1.0" encoding="UTF-8" standalone="no"?>
<svg
   xmlns:dc="http://purl.org/dc/elements/1.1/"
   xmlns:cc="http://creativecommons.org/ns#"
   xmlns:rdf="http://www.w3.org/1999/02/22-rdf-syntax-ns#"
   xmlns:svg="http://www.w3.org/2000/svg"
   xmlns="http://www.w3.org/2000/svg"
   xmlns:sodipodi="http://sodipodi.sourceforge.net/DTD/sodipodi-0.dtd"
   xmlns:inkscape="http://www.inkscape.org/namespaces/inkscape"
   inkscape:version="1.0 (4035a4fb49, 2020-05-01)"
   height="99.999107"
   width="79.703148"
   sodipodi:docname="noun_Geography_3096013.svg"
   id="svg10"
   version="1.1"
   y="0px"
   x="0px"
   viewBox="0 0 79.703148 99.999107">
  <metadata
     id="metadata14">
    <rdf:RDF>
      <cc:Work
         rdf:about="">
        <dc:format>image/svg+xml</dc:format>
        <dc:type
           rdf:resource="http://purl.org/dc/dcmitype/StillImage" />
      </cc:Work>
    </rdf:RDF>
  </metadata>
  <sodipodi:namedview
     inkscape:current-layer="svg10"
     inkscape:window-maximized="1"
     inkscape:window-y="-8"
     inkscape:window-x="-8"
     inkscape:cy="62.499146"
     inkscape:cx="39.858932"
     inkscape:zoom="5.36"
     showgrid="false"
     id="namedview12"
     inkscape:window-height="837"
     inkscape:window-width="1600"
     inkscape:pageshadow="2"
     inkscape:pageopacity="0"
     guidetolerance="10"
     gridtolerance="10"
     objecttolerance="10"
     borderopacity="1"
     bordercolor="#666666"
     pagecolor="#ffffff" />
  <defs
     id="defs4">
    <style
       id="style2">.cls-1{fill-rule:evenodd;}</style>
  </defs>
  <title
     id="title6">Subjects</title>
  <path
     style="fill:#5d576b;fill-opacity:1"
     id="path8"
     d="M 73.775742,67.482846 A 44.45169,44.45169 0 0 0 58.816082,7.6138959 l 3.08405,-5.34089 a 1.5154409,1.5154409 0 0 0 -2.625,-1.51513005 l -3.81891,6.61358005 -0.0038,0.00531 -0.003,0.00684 -3.80677,6.5930801 a 35.078,35.078 0 0 0 -7.77417,-2.9621 c -0.2091,-0.05224 -0.4212,-0.09772 -0.63183,-0.14618 -0.41285,-0.09546 -0.82727,-0.18487 -1.24469,-0.2644 -0.25757,-0.05 -0.51667,-0.09546 -0.77723,-0.13941 -0.39318,-0.06665 -0.7879,-0.125 -1.18408,-0.178 -0.25305,-0.034 -0.506,-0.0689 -0.76062,-0.09692 -0.456,-0.05078 -0.91363,-0.08942 -1.37347,-0.12274 -0.19238,-0.01367 -0.3833,-0.03333 -0.57727,-0.044 -0.66211,-0.03711 -1.328,-0.05987 -1.99994,-0.05987 q -0.94437,0 -1.87726,0.05005 h -7.3e-4 a 35.11859,35.11859 0 0 0 -19.18311,6.94458 c -0.025,0.01971 -0.05,0.03943 -0.07654,0.05835 q -0.642,0.48065 -1.26361,0.99243 l -0.12274,0.10223 q -0.60223,0.5 -1.18561,1.02881 l -0.11663,0.10754 q -0.59656,0.54657 -1.16968,1.12122 c -0.019,0.01819 -0.03711,0.03711 -0.05609,0.056 q -0.6079195,0.61249 -1.1840795,1.25379 a 1.61575,1.61575 0 0 0 -0.21589,0.23864 c -0.0098,0.01288 -0.01513,0.02729 -0.02423,0.0409 a 35.23839,35.23839 0 0 0 7.5324695,53.10394 l -3.81134,6.60138 -0.003,0.0038 -0.0023,0.0053 -3.8188995,6.61432 a 1.515413,1.515413 0 0 0 2.6249295,1.51514 l 3.07648,-5.32874 a 44.17914,44.17914 0 0 0 8.37494,3.41895 l -3.06512,9.07715 H 1.5190325 a 1.51514,1.51514 0 1 0 0,3.03027 H 69.121262 a 1.51514,1.51514 0 1 0 0,-3.03027 h -18.23233 l -3.07349,-9.10219 a 44.25384,44.25384 0 0 0 25.9603,-20.38381 z m -60.6781,-45.585 c 0.22046,-0.2099 0.44092,-0.41821 0.66669,-0.62121 0.09393,-0.08484 0.19091,-0.1659 0.28558,-0.24927 0.23028,-0.203 0.46216,-0.40607 0.69849,-0.6015 0.05908,-0.04926 0.11969,-0.09546 0.17956,-0.14392 q 0.93063,-0.76135 1.91889,-1.45227 c 0.0144,-0.0098 0.02728,-0.02045 0.04241,-0.03028 q 0.97844,-0.68407 2.0091,-1.29394 l 0.05377,-0.03333 q 1.03638,-0.61248 2.12268,-1.1485 c 0.01215,-0.0053 0.0235,-0.01208 0.03565,-0.01819 q 1.10111,-0.542 2.24847,-1.00225 l 0.02954,-0.01209 q 0.56022,-0.22385 1.12952,-0.42651 c 0.022,-0.0076 0.04394,-0.01514 0.06592,-0.0235 q 0.55334,-0.19547 1.11511,-0.37195 l 0.10986,-0.03412 q 0.54318,-0.16818 1.09241,-0.31738 c 0.05755,-0.01593 0.11517,-0.02954 0.17273,-0.04474 0.34772,-0.09241 0.69769,-0.181 1.04919,-0.26208 0.09851,-0.02277 0.19776,-0.04169 0.29627,-0.06287 0.31512,-0.0697 0.631,-0.13788 0.94842,-0.19775 q 0.633,-0.1193 1.26972,-0.21363 l 0.0068,-7.9e-4 q 0.75791,-0.11133 1.52121,-0.18634 c 0.1,-0.0098 0.20148,-0.01441 0.30225,-0.0235 0.41968,-0.03711 0.84015,-0.072 1.26135,-0.09241 0.2038,-0.0098 0.40833,-0.0098 0.61212,-0.01593 0.32269,-0.009 0.64319,-0.02343 0.96668,-0.02343 0.61816,0 1.23175,0.01965 1.84314,0.05377 0.16894,0.0098 0.33557,0.02649 0.50378,0.03863 0.4303,0.03107 0.8598,0.06745 1.28558,0.11438 0.22046,0.025 0.4394,0.0553 0.65833,0.08411 q 0.57276,0.07608 1.14087,0.17193 c 0.21594,0.03718 0.43182,0.075 0.647,0.11591 q 0.633,0.12159 1.26135,0.269 c 0.1485,0.03485 0.29853,0.06665 0.447,0.10376 0.64392,0.16059 1.2818,0.34473 1.9159,0.54621 0.35833,0.11364 0.71289,0.24395 1.06817,0.37121 0.26136,0.09241 0.52271,0.18183 0.7818,0.2818 0.42426,0.16364 0.84394,0.34094 1.26288,0.5235 0.175,0.07654 0.35,0.15076 0.52423,0.23029 q 0.67383,0.308 1.34015,0.65148 c 0.38178,0.19623 0.76819,0.3841 1.14087,0.59473 0.09015,0.04926 0.175,0.08862 0.26666,0.14087 l -0.0045,0.0099 a 5.72516,5.72516 0 0 1 -6.29163,3.67114 c -7.85749,-0.67042 -13.38545,4.5833 -15.73463,9.28246 a 5.36066,5.36066 0 0 1 -4.30605,3.04842 l -0.04169,7.4e-4 a 2.21228,2.21228 0 0 1 -2.081,-1.303 c -1.39624,-2.647 -5.37952,-7.8628 -10.05749,-9.89008 0.07192,-0.06962 0.14618,-0.13859 0.21889,-0.2075 z M 3.0341625,45.279356 a 32.13674,32.13674 0 0 1 7.5899995,-20.76642 c 4.05908,1.09693 8.2113,6.20368 9.63324,8.89911 a 5.26649,5.26649 0 0 0 4.76282,2.91663 c 0.02575,0 0.05224,0 0.07952,-7.3e-4 a 8.40975,8.40975 0 0 0 6.978,-4.72724 c 0.69544,-1.39312 4.578,-8.312 12.77332,-7.61352 a 8.731,8.731 0 0 0 9.109,-5.04389 32.21069,32.21069 0 0 1 12.41272,35.14728 c -1.37573,-0.99994 -3.225,-1.98254 -4.86431,-1.63782 a 3.2317,3.2317 0 0 0 -2.33411,2.07339 c -0.18707,0.46442 -0.7583,1.87726 -1.19922,1.99847 -0.29694,0.08032 -1.381,-0.006 -4.84009,-2.634 -2.0863,-1.59473 -3.70446,-1.36591 -4.69537,-0.89777 -3.54089,1.68183 -3.953,9.14008 -4,10.63477 l -0.259,12.69073 a 32.26575,32.26575 0 0 1 -41.1464895,-31.039 z m 62.3136595,11.86121 c -0.03943,0.09845 -0.0849,0.19317 -0.125,0.29089 q -0.18868,0.46134 -0.3902,0.91437 c -0.08105,0.1803 -0.16058,0.3606 -0.24389,0.53863 q -0.23868,0.50913 -0.49549,1.00983 c -0.06665,0.13111 -0.1333,0.26288 -0.20074,0.39319 q -0.31706,0.59665 -0.6568,1.17877 c -0.03485,0.05908 -0.06744,0.12049 -0.10229,0.17957 q -0.342,0.57614 -0.70606,1.13708 -0.36016,0.55454 -0.74316,1.09394 l -0.0038,0.0053 q -0.67272,0.94656 -1.40906,1.84088 l -0.0091,0.01214 a 32.53187,32.53187 0 0 1 -13.0263,9.53474 l -0.0031,0.0015 0.23634,-11.56428 c 0.10986,-3.384 1.04926,-7.39765 2.27045,-7.97718 a 0.57269,0.57269 0 0 1 0.24469,-0.05 2.6606,2.6606 0 0 1 1.31512,0.62115 c 3.61737,2.74927 5.7143,3.62952 7.48023,3.14472 1.73858,-0.4773 2.53631,-2.13105 3.206,-3.78711 a 0.69582,0.69582 0 0 1 0.13409,-0.23712 c 0.41138,-0.17121 1.84546,0.56665 3.2204,1.71362 z m -42.398,39.82831 2.80982,-8.32416 a 44.20223,44.20223 0 0 0 9.48474,1.03259 44.65167,44.65167 0 0 0 9.62793,-1.05682 l 2.81811,8.34839 z m -6.98628,-15.13166 3.03406,-5.25525 a 35.09824,35.09824 0 0 0 27.10651,2.30683 c 0.01056,-0.0031 0.022,-0.0015 0.03332,-0.0046 0.41364,-0.1333 0.8227,-0.278 1.2295,-0.42572 0.12121,-0.04474 0.24243,-0.08789 0.36364,-0.13336 0.41364,-0.15607 0.825,-0.31738 1.23255,-0.48786 0.0606,-0.02575 0.12048,-0.05456 0.18109,-0.08032 q 1.18066,-0.50454 2.31586,-1.09466 c 0.12426,-0.06366 0.24774,-0.125 0.37048,-0.19013 q 0.56928,-0.3034 1.12646,-0.62579 c 0.10608,-0.06134 0.21064,-0.12573 0.31592,-0.1886 q 1.1239,-0.66814 2.1947,-1.4129 c 0.04395,-0.031 0.09015,-0.06061 0.1333,-0.09162 0.35761,-0.25232 0.70832,-0.51214 1.056,-0.77655 q 0.16938,-0.12954 0.33716,-0.26287 a 35.69721,35.69721 0 0 0 2.95072,-2.57567 c 0.15606,-0.15228 0.31213,-0.30609 0.46594,-0.46136 0.25757,-0.26136 0.51434,-0.5235 0.76434,-0.79169 0.28107,-0.303 0.55457,-0.61212 0.82575,-0.925 0.247,-0.28485 0.48791,-0.575 0.7265,-0.86816 0.241,-0.29621 0.47882,-0.59546 0.71063,-0.89923 0.14771,-0.19471 0.29468,-0.38941 0.43787,-0.58637 0.36285,-0.49847 0.7182,-1.00073 1.05529,-1.51666 0.01819,-0.02875 0.03638,-0.05756 0.05457,-0.08557 q 0.484,-0.74772 0.93024,-1.522 0.07956,-0.13634 0.15759,-0.27344 0.3966,-0.70121 0.76135,-1.42273 c 0.05683,-0.11139 0.11591,-0.222 0.172,-0.33411 q 0.392,-0.79431 0.74542,-1.61059 c 0.02124,-0.05 0.04547,-0.09693 0.06665,-0.147 q 0.37958,-0.88971 0.71137,-1.8045 c 0.0076,-0.0235 0.01745,-0.04468 0.02575,-0.06665 0.0031,-0.0091 0.0031,-0.01892 0.0061,-0.02728 a 35.27565,35.27565 0 0 0 -14.2976,-41.698 l 3.03636,-5.25966 a 41.36509,41.36509 0 0 1 -41.33739,71.59907 z"
     class="cls-1" />
</svg>
