<?xml version="1.0" encoding="UTF-8" standalone="no"?>
<svg
   xmlns:dc="http://purl.org/dc/elements/1.1/"
   xmlns:cc="http://creativecommons.org/ns#"
   xmlns:rdf="http://www.w3.org/1999/02/22-rdf-syntax-ns#"
   xmlns:svg="http://www.w3.org/2000/svg"
   xmlns="http://www.w3.org/2000/svg"
   xmlns:sodipodi="http://sodipodi.sourceforge.net/DTD/sodipodi-0.dtd"
   xmlns:inkscape="http://www.inkscape.org/namespaces/inkscape"
   inkscape:version="1.0 (4035a4fb49, 2020-05-01)"
   height="99.999107"
   width="79.703148"
   sodipodi:docname="historia.svg"
   id="svg82"
   xml:space="preserve"
   viewBox="0 0 79.703148 99.999107"
   y="0px"
   x="0px"
   version="1.1"><metadata
     id="metadata88"><rdf:RDF><cc:Work
         rdf:about=""><dc:format>image/svg+xml</dc:format><dc:type
           rdf:resource="http://purl.org/dc/dcmitype/StillImage" /><dc:title /></cc:Work></rdf:RDF></metadata><defs
     id="defs86" /><sodipodi:namedview
     inkscape:current-layer="svg82"
     inkscape:window-maximized="1"
     inkscape:window-y="-8"
     inkscape:window-x="-8"
     inkscape:cy="-7.7044411"
     inkscape:cx="123.75954"
     inkscape:zoom="2.09375"
     showgrid="false"
     id="namedview84"
     inkscape:window-height="837"
     inkscape:window-width="1600"
     inkscape:pageshadow="2"
     inkscape:pageopacity="0"
     guidetolerance="10"
     gridtolerance="10"
     objecttolerance="10"
     borderopacity="1"
     bordercolor="#666666"
     pagecolor="#ffffff"
     inkscape:document-rotation="0" /><g
     transform="matrix(0.16613455,0,0,0.18504938,-2.2013326,3.1706288)"
     style="fill:#5d576b;fill-opacity:1"
     id="g80"><g
       style="fill:#5d576b;fill-opacity:1"
       id="g78"><g
         style="fill:#5d576b;fill-opacity:1"
         id="g26"><g
           style="fill:#5d576b;fill-opacity:1"
           id="g10"><g
             style="fill:#5d576b;fill-opacity:1"
             id="g4"><path
               style="fill:#5d576b;fill-opacity:1"
               id="path2"
               d="M 46,113 C 31.112,113 19,100.888 19,86 V 66 C 19,51.112 31.112,39 46,39 60.888,39 73,51.112 73,66 v 20 c 0,14.888 -12.112,27 -27,27 z m 0,-60 c -7.168,0 -13,5.832 -13,13 v 20 c 0,7.168 5.832,13 13,13 7.168,0 13,-5.832 13,-13 V 66 C 59,58.832 53.168,53 46,53 Z" /></g><g
             style="fill:#5d576b;fill-opacity:1"
             id="g8"><path
               style="fill:#5d576b;fill-opacity:1"
               id="path6"
               d="M 86,133 C 71.112,133 59,120.888 59,106 V 46 c 0,-14.888 12.112,-27 27,-27 14.888,0 27,12.112 27,27 v 60 c 0,14.888 -12.112,27 -27,27 z M 86,33 c -7.168,0 -13,5.832 -13,13 v 60 c 0,7.168 5.832,13 13,13 7.168,0 13,-5.832 13,-13 V 46 C 99,38.832 93.168,33 86,33 Z" /></g></g><g
           style="fill:#5d576b;fill-opacity:1"
           id="g20"><g
             style="fill:#5d576b;fill-opacity:1"
             id="g14"><path
               style="fill:#5d576b;fill-opacity:1"
               id="path12"
               d="m 466,113 c -14.888,0 -27,-12.112 -27,-27 V 66 c 0,-14.888 12.112,-27 27,-27 14.888,0 27,12.112 27,27 v 20 c 0,14.888 -12.112,27 -27,27 z m 0,-60 c -7.168,0 -13,5.832 -13,13 v 20 c 0,7.168 5.832,13 13,13 7.168,0 13,-5.832 13,-13 V 66 c 0,-7.168 -5.832,-13 -13,-13 z" /></g><g
             style="fill:#5d576b;fill-opacity:1"
             id="g18"><path
               style="fill:#5d576b;fill-opacity:1"
               id="path16"
               d="m 426,133 c -14.888,0 -27,-12.112 -27,-27 V 46 c 0,-14.888 12.112,-27 27,-27 14.888,0 27,12.112 27,27 v 60 c 0,14.888 -12.112,27 -27,27 z m 0,-100 c -7.168,0 -13,5.832 -13,13 v 60 c 0,7.168 5.832,13 13,13 7.168,0 13,-5.832 13,-13 V 46 c 0,-7.168 -5.832,-13 -13,-13 z" /></g></g><g
           style="fill:#5d576b;fill-opacity:1"
           id="g24"><path
             style="fill:#5d576b;fill-opacity:1"
             id="path22"
             d="M 406,113 H 106 c -3.866,0 -7,-3.134 -7,-7 V 46 c 0,-3.866 3.134,-7 7,-7 h 300 c 3.866,0 7,3.134 7,7 v 60 c 0,3.866 -3.134,7 -7,7 z M 113,99 H 399 V 53 H 113 Z" /></g></g><g
         style="fill:#5d576b;fill-opacity:1"
         id="g52"><g
           style="fill:#5d576b;fill-opacity:1"
           id="g36"><g
             style="fill:#5d576b;fill-opacity:1"
             id="g30"><path
               style="fill:#5d576b;fill-opacity:1"
               id="path28"
               d="M 46,473 C 31.112,473 19,460.888 19,446 v -20 c 0,-14.888 12.112,-27 27,-27 14.888,0 27,12.112 27,27 v 20 c 0,14.888 -12.112,27 -27,27 z m 0,-60 c -7.168,0 -13,5.832 -13,13 v 20 c 0,7.168 5.832,13 13,13 7.168,0 13,-5.832 13,-13 v -20 c 0,-7.168 -5.832,-13 -13,-13 z" /></g><g
             style="fill:#5d576b;fill-opacity:1"
             id="g34"><path
               style="fill:#5d576b;fill-opacity:1"
               id="path32"
               d="M 86,493 C 71.112,493 59,480.888 59,466 v -60 c 0,-14.888 12.112,-27 27,-27 14.888,0 27,12.112 27,27 v 60 c 0,14.888 -12.112,27 -27,27 z m 0,-100 c -7.168,0 -13,5.832 -13,13 v 60 c 0,7.168 5.832,13 13,13 7.168,0 13,-5.832 13,-13 v -60 c 0,-7.168 -5.832,-13 -13,-13 z" /></g></g><g
           style="fill:#5d576b;fill-opacity:1"
           id="g46"><g
             style="fill:#5d576b;fill-opacity:1"
             id="g40"><path
               style="fill:#5d576b;fill-opacity:1"
               id="path38"
               d="m 466,473 c -14.888,0 -27,-12.112 -27,-27 v -20 c 0,-14.888 12.112,-27 27,-27 14.888,0 27,12.112 27,27 v 20 c 0,14.888 -12.112,27 -27,27 z m 0,-60 c -7.168,0 -13,5.832 -13,13 v 20 c 0,7.168 5.832,13 13,13 7.168,0 13,-5.832 13,-13 v -20 c 0,-7.168 -5.832,-13 -13,-13 z" /></g><g
             style="fill:#5d576b;fill-opacity:1"
             id="g44"><path
               style="fill:#5d576b;fill-opacity:1"
               id="path42"
               d="m 426,493 c -14.888,0 -27,-12.112 -27,-27 v -60 c 0,-14.888 12.112,-27 27,-27 14.888,0 27,12.112 27,27 v 60 c 0,14.888 -12.112,27 -27,27 z m 0,-100 c -7.168,0 -13,5.832 -13,13 v 60 c 0,7.168 5.832,13 13,13 7.168,0 13,-5.832 13,-13 v -60 c 0,-7.168 -5.832,-13 -13,-13 z" /></g></g><g
           style="fill:#5d576b;fill-opacity:1"
           id="g50"><path
             style="fill:#5d576b;fill-opacity:1"
             id="path48"
             d="M 406,473 H 106 c -3.866,0 -7,-3.134 -7,-7 v -60 c 0,-3.866 3.134,-7 7,-7 h 300 c 3.866,0 7,3.134 7,7 v 60 c 0,3.866 -3.134,7 -7,7 z M 113,459 H 399 V 413 H 113 Z" /></g></g><g
         style="fill:#5d576b;fill-opacity:1"
         id="g56"><path
           style="fill:#5d576b;fill-opacity:1"
           id="path54"
           d="M 386,413 H 126 c -3.866,0 -7,-3.134 -7,-7 V 106 c 0,-3.866 3.134,-7 7,-7 h 260 c 3.866,0 7,3.134 7,7 v 300 c 0,3.866 -3.134,7 -7,7 z M 133,399 H 379 V 113 H 133 Z" /></g><g
         style="fill:#5d576b;fill-opacity:1"
         id="g60"><path
           style="fill:#5d576b;fill-opacity:1"
           id="path58"
           d="m 256,183 h -70 c -3.866,0 -7,-3.134 -7,-7 0,-3.866 3.134,-7 7,-7 h 70 c 3.866,0 7,3.134 7,7 0,3.866 -3.134,7 -7,7 z" /></g><g
         style="fill:#5d576b;fill-opacity:1"
         id="g64"><path
           style="fill:#5d576b;fill-opacity:1"
           id="path62"
           d="m 296,223 h -70 c -3.866,0 -7,-3.134 -7,-7 0,-3.866 3.134,-7 7,-7 h 70 c 3.866,0 7,3.134 7,7 0,3.866 -3.134,7 -7,7 z" /></g><g
         style="fill:#5d576b;fill-opacity:1"
         id="g68"><path
           style="fill:#5d576b;fill-opacity:1"
           id="path66"
           d="m 266,263 h -70 c -3.866,0 -7,-3.134 -7,-7 0,-3.866 3.134,-7 7,-7 h 70 c 3.866,0 7,3.134 7,7 0,3.866 -3.134,7 -7,7 z" /></g><g
         style="fill:#5d576b;fill-opacity:1"
         id="g72"><path
           style="fill:#5d576b;fill-opacity:1"
           id="path70"
           d="m 306,303 h -70 c -3.866,0 -7,-3.134 -7,-7 0,-3.866 3.134,-7 7,-7 h 70 c 3.866,0 7,3.134 7,7 0,3.866 -3.134,7 -7,7 z" /></g><g
         style="fill:#5d576b;fill-opacity:1"
         id="g76"><path
           style="fill:#5d576b;fill-opacity:1"
           id="path74"
           d="m 286,343 h -70 c -3.866,0 -7,-3.134 -7,-7 0,-3.866 3.134,-7 7,-7 h 70 c 3.866,0 7,3.134 7,7 0,3.866 -3.134,7 -7,7 z" /></g></g></g></svg>
