<?xml version="1.0" encoding="UTF-8" standalone="no"?>
<svg
   xmlns:dc="http://purl.org/dc/elements/1.1/"
   xmlns:cc="http://creativecommons.org/ns#"
   xmlns:rdf="http://www.w3.org/1999/02/22-rdf-syntax-ns#"
   xmlns:svg="http://www.w3.org/2000/svg"
   xmlns="http://www.w3.org/2000/svg"
   xmlns:sodipodi="http://sodipodi.sourceforge.net/DTD/sodipodi-0.dtd"
   xmlns:inkscape="http://www.inkscape.org/namespaces/inkscape"
   viewBox="0 0 79.703148 99.999108"
   version="1.1"
   x="0px"
   y="0px"
   id="svg88"
   sodipodi:docname="ingles.svg"
   width="79.703148"
   height="99.999107"
   inkscape:version="1.0 (4035a4fb49, 2020-05-01)">
  <metadata
     id="metadata94">
    <rdf:RDF>
      <cc:Work
         rdf:about="">
        <dc:format>image/svg+xml</dc:format>
        <dc:type
           rdf:resource="http://purl.org/dc/dcmitype/StillImage" />
        <dc:title>svg/241-USA--United_States_of_America</dc:title>
      </cc:Work>
    </rdf:RDF>
  </metadata>
  <defs
     id="defs92" />
  <sodipodi:namedview
     inkscape:document-rotation="0"
     pagecolor="#ffffff"
     bordercolor="#666666"
     borderopacity="1"
     objecttolerance="10"
     gridtolerance="10"
     guidetolerance="10"
     inkscape:pageopacity="0"
     inkscape:pageshadow="2"
     inkscape:window-width="1600"
     inkscape:window-height="837"
     id="namedview90"
     showgrid="false"
     inkscape:zoom="11.166667"
     inkscape:cx="39.468189"
     inkscape:cy="2.6354584"
     inkscape:window-x="-8"
     inkscape:window-y="-8"
     inkscape:window-maximized="1"
     inkscape:current-layer="svg88" />
  <title
     id="title2">svg/241-USA--United_States_of_America</title>
  <desc
     id="desc4">Created with Sketch.</desc>
  <g
     stroke="none"
     stroke-width="1"
     fill="none"
     fill-rule="evenodd"
     id="g86"
     style="fill:#5d576b;fill-opacity:1"
     transform="matrix(2.1496571,0,0,2.1496571,-4.1202098,-1.6127471)">
    <g
       transform="translate(-52,-1562)"
       fill="#000000"
       fill-rule="nonzero"
       id="g84"
       style="fill:#5d576b;fill-opacity:1">
      <g
         transform="translate(54,28)"
         id="g8"
         style="fill:#5d576b;fill-opacity:1">
        <path
           d="m 19.935463,1579.997 -1.299469,0.1438 0.871904,-0.9742 C 22.472205,1575.8544 21.350484,1573 18.289262,1573 H 6.5 c -3.5898509,0 -6.5,-2.9101 -6.5,-6.5 v -24 c 0,-3.5898 2.9101491,-6.5 6.5,-6.5 h 24 c 3.589851,0 6.5,2.9102 6.5,6.5 v 24 c 0,3.5899 -2.910149,6.5 -6.5,6.5 h -3.573268 c -0.7313,4.1957 -3.085172,6.5648 -6.991269,6.997 z m 6.069649,-7.5683 0.06178,-0.4287 H 30.5 c 3.037566,0 5.5,-2.4624 5.5,-5.5 v -24 c 0,-3.0376 -2.462434,-5.5 -5.5,-5.5 h -24 c -3.0375661,0 -5.5,2.4624 -5.5,5.5 v 24 c 0,3.0376 2.4624339,5.5 5.5,5.5 h 11.789262 c 3.5989,0 5.191125,3.2275 2.793993,6.7745 2.790139,-0.7293 4.413367,-2.8173 4.921857,-6.3458 z"
           id="path6"
           style="fill:#5d576b;fill-opacity:1" />
      </g>
      <g
         transform="translate(53.5,1563.5)"
         id="g82"
         style="fill:#5d576b;fill-opacity:1">
        <path
           d="M 36.37095,3.9 H 19 c -0.0014,0 -0.0028,-5.9e-6 -0.0042,-1.76e-5 V 2.9 h 16.592922 z"
           id="path10"
           style="fill:#5d576b;fill-opacity:1" />
        <path
           d="m 18.5,12.2 c 0,-0.276142 0.223858,-0.5 0.5,-0.5 h 18 c 0.276142,0 0.5,0.223858 0.5,0.5 v 2.4 c 0,0.276142 -0.223858,0.5 -0.5,0.5 H 19 c -0.276142,0 -0.5,-0.223858 -0.5,-0.5 z m 1,0.5 v 1.4 h 17 v -1.4 z"
           id="path12"
           style="fill:#5d576b;fill-opacity:1" />
        <path
           d="m 0.5,23.4 c 0,-0.276142 0.22385762,-0.5 0.5,-0.5 h 36 c 0.276142,0 0.5,0.223858 0.5,0.5 v 2.4 c 0,0.276142 -0.223858,0.5 -0.5,0.5 H 1 c -0.27614238,0 -0.5,-0.223858 -0.5,-0.5 z m 1,0.5 v 1.4 h 35 v -1.4 z"
           id="path14"
           style="fill:#5d576b;fill-opacity:1" />
        <path
           d="m 18.5,6.6 c 0,-0.2761424 0.223858,-0.5 0.5,-0.5 h 18 c 0.276142,0 0.5,0.2238576 0.5,0.5 V 9 c 0,0.2761424 -0.223858,0.5 -0.5,0.5 H 19 C 18.723858,9.5 18.5,9.2761424 18.5,9 Z m 1,0.5 v 1.4 h 17 V 7.1 Z"
           id="path16"
           style="fill:#5d576b;fill-opacity:1" />
        <path
           d="m 18.5,17.8 c 0,-0.276142 0.223858,-0.5 0.5,-0.5 h 18 c 0.276142,0 0.5,0.223858 0.5,0.5 v 2.4 c 0,0.276142 -0.223858,0.5 -0.5,0.5 H 19 c -0.276142,0 -0.5,-0.223858 -0.5,-0.5 z m 1,1.9 h 17 v -1.4 h -17 z"
           id="path18"
           style="fill:#5d576b;fill-opacity:1" />
        <path
           d="m 0.5,29 c 0,-0.276142 0.22385762,-0.5 0.5,-0.5 h 36 c 0.276142,0 0.5,0.223858 0.5,0.5 v 2.4 c 0,0.276142 -0.223858,0.5 -0.5,0.5 H 1 c -0.27614238,0 -0.5,-0.223858 -0.5,-0.5 z m 1,0.5 v 1.4 h 35 v -1.4 z"
           id="path20"
           style="fill:#5d576b;fill-opacity:1" />
        <polygon
           points="36,34.1 36,35.1 2,35.1 2,34.1 "
           id="polygon22"
           style="fill:#5d576b;fill-opacity:1" />
        <path
           d="m 18.5,0.5 h 1 v 20.2 h -19 v -1 h 18 z"
           id="path24"
           style="fill:#5d576b;fill-opacity:1" />
        <g
           transform="translate(2,2)"
           id="g80"
           style="fill:#5d576b;fill-opacity:1">
          <polygon
             points="3.9510565,0.69098301 3.4755283,1.1545085 3.5877853,1.809017 3,1.5 2.4122147,1.809017 2.5244717,1.1545085 2.0489435,0.69098301 2.7061074,0.5954915 3,0 3.2938926,0.5954915 "
             id="polygon26"
             style="fill:#5d576b;fill-opacity:1" />
          <polygon
             points="7.9510565,0.69098301 7.4755283,1.1545085 7.5877852,1.809017 7,1.5 6.4122148,1.809017 6.5244717,1.1545085 6.0489435,0.69098301 6.7061074,0.5954915 7,0 7.2938926,0.5954915 "
             id="polygon28"
             style="fill:#5d576b;fill-opacity:1" />
          <polygon
             points="11.951056,0.69098301 11.475528,1.1545085 11.587785,1.809017 11,1.5 10.412215,1.809017 10.524472,1.1545085 10.048944,0.69098301 10.706107,0.5954915 11,0 11.293893,0.5954915 "
             id="polygon30"
             style="fill:#5d576b;fill-opacity:1" />
          <polygon
             points="11.951056,0.69098301 11.475528,1.1545085 11.587785,1.809017 11,1.5 10.412215,1.809017 10.524472,1.1545085 10.048944,0.69098301 10.706107,0.5954915 11,0 11.293893,0.5954915 "
             id="polygon32"
             style="fill:#5d576b;fill-opacity:1" />
          <polygon
             points="13.951056,3.690983 13.475528,4.1545085 13.587785,4.809017 13,4.5 12.412215,4.809017 12.524472,4.1545085 12.048944,3.690983 12.706107,3.5954915 13,3 13.293893,3.5954915 "
             id="polygon34"
             style="fill:#5d576b;fill-opacity:1" />
          <polygon
             points="1.9510565,3.690983 1.4755283,4.1545085 1.5877853,4.809017 1,4.5 0.41221475,4.809017 0.52447174,4.1545085 0.048943484,3.690983 0.70610737,3.5954915 1,3 1.2938926,3.5954915 "
             id="polygon36"
             style="fill:#5d576b;fill-opacity:1" />
          <polygon
             points="5.9510565,3.690983 5.4755283,4.1545085 5.5877852,4.809017 5,4.5 4.4122148,4.809017 4.5244717,4.1545085 4.0489435,3.690983 4.7061074,3.5954915 5,3 5.2938926,3.5954915 "
             id="polygon38"
             style="fill:#5d576b;fill-opacity:1" />
          <polygon
             points="9.9510565,3.690983 9.4755283,4.1545085 9.5877852,4.809017 9,4.5 8.4122148,4.809017 8.5244717,4.1545085 8.0489435,3.690983 8.7061074,3.5954915 9,3 9.2938926,3.5954915 "
             id="polygon40"
             style="fill:#5d576b;fill-opacity:1" />
          <polygon
             points="15.951056,0.69098301 15.475528,1.1545085 15.587785,1.809017 15,1.5 14.412215,1.809017 14.524472,1.1545085 14.048944,0.69098301 14.706107,0.5954915 15,0 15.293893,0.5954915 "
             id="polygon42"
             style="fill:#5d576b;fill-opacity:1" />
          <polygon
             points="3.9510565,6.690983 3.4755283,7.1545085 3.5877853,7.809017 3,7.5 2.4122147,7.809017 2.5244717,7.1545085 2.0489435,6.690983 2.7061074,6.5954915 3,6 3.2938926,6.5954915 "
             id="polygon44"
             style="fill:#5d576b;fill-opacity:1" />
          <polygon
             points="7.9510565,6.690983 7.4755283,7.1545085 7.5877852,7.809017 7,7.5 6.4122148,7.809017 6.5244717,7.1545085 6.0489435,6.690983 6.7061074,6.5954915 7,6 7.2938926,6.5954915 "
             id="polygon46"
             style="fill:#5d576b;fill-opacity:1" />
          <polygon
             points="11.951056,6.690983 11.475528,7.1545085 11.587785,7.809017 11,7.5 10.412215,7.809017 10.524472,7.1545085 10.048944,6.690983 10.706107,6.5954915 11,6 11.293893,6.5954915 "
             id="polygon48"
             style="fill:#5d576b;fill-opacity:1" />
          <polygon
             points="11.951056,6.690983 11.475528,7.1545085 11.587785,7.809017 11,7.5 10.412215,7.809017 10.524472,7.1545085 10.048944,6.690983 10.706107,6.5954915 11,6 11.293893,6.5954915 "
             id="polygon50"
             style="fill:#5d576b;fill-opacity:1" />
          <polygon
             points="13.951056,9.690983 13.475528,10.154509 13.587785,10.809017 13,10.5 12.412215,10.809017 12.524472,10.154509 12.048944,9.690983 12.706107,9.5954915 13,9 13.293893,9.5954915 "
             id="polygon52"
             style="fill:#5d576b;fill-opacity:1" />
          <polygon
             points="1.9510565,9.690983 1.4755283,10.154509 1.5877853,10.809017 1,10.5 0.41221475,10.809017 0.52447174,10.154509 0.048943484,9.690983 0.70610737,9.5954915 1,9 1.2938926,9.5954915 "
             id="polygon54"
             style="fill:#5d576b;fill-opacity:1" />
          <polygon
             points="5.9510565,9.690983 5.4755283,10.154509 5.5877852,10.809017 5,10.5 4.4122148,10.809017 4.5244717,10.154509 4.0489435,9.690983 4.7061074,9.5954915 5,9 5.2938926,9.5954915 "
             id="polygon56"
             style="fill:#5d576b;fill-opacity:1" />
          <polygon
             points="9.9510565,9.690983 9.4755283,10.154509 9.5877852,10.809017 9,10.5 8.4122148,10.809017 8.5244717,10.154509 8.0489435,9.690983 8.7061074,9.5954915 9,9 9.2938926,9.5954915 "
             id="polygon58"
             style="fill:#5d576b;fill-opacity:1" />
          <polygon
             points="13.951056,15.690983 13.475528,16.154508 13.587785,16.809017 13,16.5 12.412215,16.809017 12.524472,16.154508 12.048944,15.690983 12.706107,15.595491 13,15 13.293893,15.595491 "
             id="polygon60"
             style="fill:#5d576b;fill-opacity:1" />
          <polygon
             points="1.9510565,15.690983 1.4755283,16.154508 1.5877853,16.809017 1,16.5 0.41221475,16.809017 0.52447174,16.154508 0.048943484,15.690983 0.70610737,15.595491 1,15 1.2938926,15.595491 "
             id="polygon62"
             style="fill:#5d576b;fill-opacity:1" />
          <polygon
             points="5.9510565,15.690983 5.4755283,16.154508 5.5877852,16.809017 5,16.5 4.4122148,16.809017 4.5244717,16.154508 4.0489435,15.690983 4.7061074,15.595491 5,15 5.2938926,15.595491 "
             id="polygon64"
             style="fill:#5d576b;fill-opacity:1" />
          <polygon
             points="9.9510565,15.690983 9.4755283,16.154508 9.5877852,16.809017 9,16.5 8.4122148,16.809017 8.5244717,16.154508 8.0489435,15.690983 8.7061074,15.595491 9,15 9.2938926,15.595491 "
             id="polygon66"
             style="fill:#5d576b;fill-opacity:1" />
          <polygon
             points="15.951056,6.690983 15.475528,7.1545085 15.587785,7.809017 15,7.5 14.412215,7.809017 14.524472,7.1545085 14.048944,6.690983 14.706107,6.5954915 15,6 15.293893,6.5954915 "
             id="polygon68"
             style="fill:#5d576b;fill-opacity:1" />
          <polygon
             points="3.9510565,12.690983 3.4755283,13.154509 3.5877853,13.809017 3,13.5 2.4122147,13.809017 2.5244717,13.154509 2.0489435,12.690983 2.7061074,12.595491 3,12 3.2938926,12.595491 "
             id="polygon70"
             style="fill:#5d576b;fill-opacity:1" />
          <polygon
             points="7.9510565,12.690983 7.4755283,13.154509 7.5877852,13.809017 7,13.5 6.4122148,13.809017 6.5244717,13.154509 6.0489435,12.690983 6.7061074,12.595491 7,12 7.2938926,12.595491 "
             id="polygon72"
             style="fill:#5d576b;fill-opacity:1" />
          <polygon
             points="11.951056,12.690983 11.475528,13.154509 11.587785,13.809017 11,13.5 10.412215,13.809017 10.524472,13.154509 10.048944,12.690983 10.706107,12.595491 11,12 11.293893,12.595491 "
             id="polygon74"
             style="fill:#5d576b;fill-opacity:1" />
          <polygon
             points="11.951056,12.690983 11.475528,13.154509 11.587785,13.809017 11,13.5 10.412215,13.809017 10.524472,13.154509 10.048944,12.690983 10.706107,12.595491 11,12 11.293893,12.595491 "
             id="polygon76"
             style="fill:#5d576b;fill-opacity:1" />
          <polygon
             points="15.951056,12.690983 15.475528,13.154509 15.587785,13.809017 15,13.5 14.412215,13.809017 14.524472,13.154509 14.048944,12.690983 14.706107,12.595491 15,12 15.293893,12.595491 "
             id="polygon78"
             style="fill:#5d576b;fill-opacity:1" />
        </g>
      </g>
    </g>
  </g>
</svg>
