<?xml version="1.0" encoding="UTF-8" standalone="no"?>
<svg
   xmlns:dc="http://purl.org/dc/elements/1.1/"
   xmlns:cc="http://creativecommons.org/ns#"
   xmlns:rdf="http://www.w3.org/1999/02/22-rdf-syntax-ns#"
   xmlns:svg="http://www.w3.org/2000/svg"
   xmlns="http://www.w3.org/2000/svg"
   xmlns:sodipodi="http://sodipodi.sourceforge.net/DTD/sodipodi-0.dtd"
   xmlns:inkscape="http://www.inkscape.org/namespaces/inkscape"
   version="1.1"
   x="0px"
   y="0px"
   viewBox="0 0 79.703148 99.999108"
   enable-background="new 0 0 57 57"
   xml:space="preserve"
   id="svg4"
   sodipodi:docname="literatura.svg"
   width="79.703148"
   height="99.999107"
   inkscape:version="1.0 (4035a4fb49, 2020-05-01)"><metadata
     id="metadata10"><rdf:RDF><cc:Work
         rdf:about=""><dc:format>image/svg+xml</dc:format><dc:type
           rdf:resource="http://purl.org/dc/dcmitype/StillImage" /><dc:title></dc:title></cc:Work></rdf:RDF></metadata><defs
     id="defs8" /><sodipodi:namedview
     inkscape:document-rotation="0"
     pagecolor="#ffffff"
     bordercolor="#666666"
     borderopacity="1"
     objecttolerance="10"
     gridtolerance="10"
     guidetolerance="10"
     inkscape:pageopacity="0"
     inkscape:pageshadow="2"
     inkscape:window-width="1600"
     inkscape:window-height="837"
     id="namedview6"
     showgrid="false"
     inkscape:zoom="9.4035088"
     inkscape:cx="46.887348"
     inkscape:cy="30.172"
     inkscape:window-x="-8"
     inkscape:window-y="-8"
     inkscape:window-maximized="1"
     inkscape:current-layer="svg4" /><path
     d="M 77.433716,23.621183 H 71.159747 V 18.35147 c 0,-1.186438 -0.91693,-2.171122 -2.101863,-2.253931 -1.401744,-0.09636 -2.791442,-0.146047 -4.137477,-0.146047 -14.259843,0 -21.905443,5.417265 -25.125991,8.53844 -3.225064,-3.122681 -10.87217,-8.53844 -25.127496,-8.53844 -1.346035,0 -2.737239,0.04969 -4.137477,0.146047 -1.1864385,0.08281 -2.1033685,1.067493 -2.1033685,2.253931 v 5.269713 H 2.152105 c -1.24816908,0 -2.25844828,1.010279 -2.25844828,2.258448 v 51.191495 c 0,0.632366 0.2664969,1.236124 0.73173726,1.663724 0.46674592,0.429105 1.09007772,0.648927 1.72244322,0.585691 8.5730698,-0.742277 23.4818408,-0.855199 26.9252208,1.960333 0.18971,0.165619 4.720157,4.071229 10.519853,4.071229 5.799695,0 10.330142,-3.90561 10.464144,-4.023049 3.500594,-2.863712 18.409365,-2.75079 26.980929,-2.008513 0.641399,0.06324 1.255697,-0.156586 1.722443,-0.585691 0.46524,-0.4276 0.731737,-1.031358 0.731737,-1.663724 V 25.879631 c 0,-1.248169 -1.010279,-2.258448 -2.258448,-2.258448 z M 64.920407,20.468389 c 0.566117,0 1.141269,0.009 1.722443,0.02861 v 46.727295 c -0.191215,-0.0015 -0.391464,-0.0015 -0.602253,-0.0015 -5.509108,0 -15.398101,0.549556 -23.987732,3.884531 v -42.44378 c 1.535745,-1.80977 8.005446,-8.195156 22.867542,-8.195156 z m -51.977436,0.02861 c 0.58268,-0.01957 1.156326,-0.02861 1.723949,-0.02861 14.865107,0 21.310719,6.346239 22.869048,8.189133 V 71.105811 C 28.943325,67.770836 19.057344,67.22128 13.545224,67.22128 c -0.210788,0 -0.411037,0 -0.602253,0.0015 z m 62.232297,54.138017 c -6.79793,-0.448678 -22.659765,-0.9892 -27.834623,3.246143 -0.03463,0.03011 -3.490055,2.954051 -7.547734,2.954051 -4.074241,0 -7.517622,-2.929961 -7.603443,-3.002231 C 27.064296,73.63979 11.208483,74.186335 4.4105533,74.635013 V 28.138079 h 4.0155212 v 41.404886 c 0,0.621826 0.2559574,1.216551 0.7091527,1.642645 0.4531953,0.427599 1.0644828,0.650433 1.6802858,0.612792 0.03463,-0.0015 1.050931,-0.05872 2.729711,-0.05872 4.690045,0 16.537865,0.471263 25.234396,4.840608 0.319194,0.159597 0.66549,0.240901 1.014796,0.240901 0.346296,0 0.694097,-0.0798 1.013291,-0.240901 8.696531,-4.369345 20.542846,-4.840608 25.23289,-4.840608 1.681791,0 2.696587,0.05721 2.729711,0.05872 0.627849,0.03011 1.228596,-0.186698 1.680286,-0.612792 0.453195,-0.426094 0.709153,-1.020819 0.709153,-1.642645 V 28.138079 h 4.015521 z"
     id="path2"
     style="fill:#5d576b;fill-opacity:1;stroke-width:1.50563" /></svg>
