<?xml version="1.0" encoding="UTF-8" standalone="no"?>
<svg
   xmlns:dc="http://purl.org/dc/elements/1.1/"
   xmlns:cc="http://creativecommons.org/ns#"
   xmlns:rdf="http://www.w3.org/1999/02/22-rdf-syntax-ns#"
   xmlns:svg="http://www.w3.org/2000/svg"
   xmlns="http://www.w3.org/2000/svg"
   xmlns:sodipodi="http://sodipodi.sourceforge.net/DTD/sodipodi-0.dtd"
   xmlns:inkscape="http://www.inkscape.org/namespaces/inkscape"
   viewBox="0 0 79.703148 99.999108"
   version="1.1"
   x="0px"
   y="0px"
   id="svg22"
   sodipodi:docname="portugues.svg"
   width="79.703148"
   height="99.999107"
   inkscape:version="1.0 (4035a4fb49, 2020-05-01)">
  <metadata
     id="metadata28">
    <rdf:RDF>
      <cc:Work
         rdf:about="">
        <dc:format>image/svg+xml</dc:format>
        <dc:type
           rdf:resource="http://purl.org/dc/dcmitype/StillImage" />
        <dc:title>svg/031-BRA--Brazil</dc:title>
      </cc:Work>
    </rdf:RDF>
  </metadata>
  <defs
     id="defs26" />
  <sodipodi:namedview
     inkscape:document-rotation="0"
     pagecolor="#ffffff"
     bordercolor="#666666"
     borderopacity="1"
     objecttolerance="10"
     gridtolerance="10"
     guidetolerance="10"
     inkscape:pageopacity="0"
     inkscape:pageshadow="2"
     inkscape:window-width="1600"
     inkscape:window-height="837"
     id="namedview24"
     showgrid="false"
     inkscape:zoom="11.166667"
     inkscape:cx="42.388663"
     inkscape:cy="-1.199611"
     inkscape:window-x="-8"
     inkscape:window-y="-8"
     inkscape:window-maximized="1"
     inkscape:current-layer="svg22" />
  <title
     id="title2">svg/031-BRA--Brazil</title>
  <desc
     id="desc4">Created with Sketch.</desc>
  <g
     stroke="none"
     stroke-width="1"
     fill="none"
     fill-rule="evenodd"
     id="g20"
     style="fill:#5d576b;fill-opacity:1"
     transform="matrix(2.1523515,0,0,2.1523515,-4.1255985,-2.0658972)">
    <g
       transform="translate(-52,-218)"
       fill="#000000"
       fill-rule="nonzero"
       id="g18"
       style="fill:#5d576b;fill-opacity:1">
      <g
         transform="translate(54,28)"
         id="g8"
         style="fill:#5d576b;fill-opacity:1">
        <path
           d="m 19.935463,235.99697 -1.299469,0.14379 0.871904,-0.97421 C 22.472205,231.85444 21.350484,229 18.289262,229 H 6.5 C 2.9101491,229 0,226.08985 0,222.5 v -24 C 0,194.91015 2.9101491,192 6.5,192 h 24 c 3.589851,0 6.5,2.91015 6.5,6.5 v 24 c 0,3.58985 -2.910149,6.5 -6.5,6.5 h -3.573268 c -0.7313,4.19569 -3.085172,6.56475 -6.991269,6.99697 z M 26.005112,228.42868 26.066889,228 H 30.5 c 3.037566,0 5.5,-2.46243 5.5,-5.5 v -24 C 36,195.46243 33.537566,193 30.5,193 H 6.5 C 3.4624339,193 1,195.46243 1,198.5 v 24 c 0,3.03757 2.4624339,5.5 5.5,5.5 h 11.789262 c 3.5989,0 5.191125,3.22751 2.793993,6.7745 2.790139,-0.72927 4.413367,-2.8173 4.921857,-6.34582 z"
           id="path6"
           style="fill:#5d576b;fill-opacity:1" />
      </g>
      <g
         transform="translate(54.5,223.5)"
         id="g16"
         style="fill:#5d576b;fill-opacity:1">
        <path
           d="M 18,0.35227307 35.786526,15 18,29.647727 0.21347445,15 Z M 18,1.6477269 1.7865256,15 18,28.352273 34.213474,15 Z"
           id="path10"
           style="fill:#5d576b;fill-opacity:1" />
        <path
           d="m 27.5,15 c 0,5.246705 -4.253295,9.5 -9.5,9.5 -5.246705,0 -9.5,-4.253295 -9.5,-9.5 0,-5.2467054 4.253295,-9.5 9.5,-9.5 5.246705,0 9.5,4.2532946 9.5,9.5 z m -1,0 c 0,-4.694421 -3.805579,-8.5 -8.5,-8.5 -4.694421,0 -8.5,3.805579 -8.5,8.5 0,4.694421 3.805579,8.5 8.5,8.5 4.694421,0 8.5,-3.805579 8.5,-8.5 z"
           id="path12"
           style="fill:#5d576b;fill-opacity:1" />
        <path
           d="m 26.939934,16.045419 c -0.06779,0.586025 -0.191871,1.154897 -0.366697,1.70107 -3.193213,-3.084595 -7.54038,-4.982259 -12.33077,-4.982259 -1.780148,0 -3.499089,0.262053 -5.120353,0.749687 0.096439,-0.580425 0.2484209,-1.142076 0.4503003,-1.679308 1.4951807,-0.372598 3.0595197,-0.570379 4.6700527,-0.570379 4.864988,0 9.308462,1.804715 12.697467,4.781189 z"
           id="path14"
           style="fill:#5d576b;fill-opacity:1" />
      </g>
    </g>
  </g>
</svg>
