<?xml version="1.0" encoding="UTF-8" standalone="no"?>
<svg
   xmlns:dc="http://purl.org/dc/elements/1.1/"
   xmlns:cc="http://creativecommons.org/ns#"
   xmlns:rdf="http://www.w3.org/1999/02/22-rdf-syntax-ns#"
   xmlns:svg="http://www.w3.org/2000/svg"
   xmlns="http://www.w3.org/2000/svg"
   xmlns:sodipodi="http://sodipodi.sourceforge.net/DTD/sodipodi-0.dtd"
   xmlns:inkscape="http://www.inkscape.org/namespaces/inkscape"
   version="1.1"
   x="0px"
   y="0px"
   viewBox="0 0 79.703149 99.999108"
   enable-background="new 0 0 32 32"
   xml:space="preserve"
   id="svg16"
   sodipodi:docname="quimica.svg"
   width="79.703148"
   height="99.999107"
   inkscape:version="1.0 (4035a4fb49, 2020-05-01)"><metadata
     id="metadata22"><rdf:RDF><cc:Work
         rdf:about=""><dc:format>image/svg+xml</dc:format><dc:type
           rdf:resource="http://purl.org/dc/dcmitype/StillImage" /><dc:title></dc:title></cc:Work></rdf:RDF></metadata><defs
     id="defs20" /><sodipodi:namedview
     inkscape:document-rotation="0"
     pagecolor="#ffffff"
     bordercolor="#666666"
     borderopacity="1"
     objecttolerance="10"
     gridtolerance="10"
     guidetolerance="10"
     inkscape:pageopacity="0"
     inkscape:pageshadow="2"
     inkscape:window-width="1600"
     inkscape:window-height="837"
     id="namedview18"
     showgrid="false"
     inkscape:zoom="5.9220193"
     inkscape:cx="34.850574"
     inkscape:cy="44.535247"
     inkscape:window-x="-8"
     inkscape:window-y="-8"
     inkscape:window-maximized="1"
     inkscape:current-layer="svg16" /><path
     d="M 49.203255,48.647594 V 30.332801 h 0.05318 c 2.114569,0 3.835002,-1.720433 3.835002,-3.835002 v -3.53158 c 0,-2.117697 -1.720433,-3.83813 -3.835002,-3.83813 H 30.503711 c -2.114569,0 -3.835002,1.720433 -3.835002,3.83813 v 3.53158 c 0,2.114569 1.720433,3.835002 3.835002,3.835002 l 0.05318,18.311665 c -10.344498,3.875666 -17.216847,13.719672 -17.216847,24.843055 0,14.636194 11.908526,26.541589 26.541592,26.541589 14.633066,0 26.538463,-11.905395 26.538463,-26.541589 0,-11.123383 -6.872348,-20.964261 -17.216844,-24.839927 z m -16.600616,2.593162 1.079181,-0.353471 v -4.175961 h 5.958955 v -3.12806 H 33.68182 v -3.159341 h 5.958955 v -3.12806 H 33.68182 v -3.159341 h 5.958955 v -3.12806 H 33.68182 V 27.20474 h -3.181237 c -0.391008,0 -0.706942,-0.319062 -0.706942,-0.706941 v -3.53158 c 0,-0.391008 0.315934,-0.71007 0.706942,-0.71007 h 18.752721 c 0.391008,0 0.706942,0.319062 0.706942,0.71007 v 3.53158 c 0,0.391007 -0.315934,0.706941 -0.706942,0.706941 h -3.181237 v 23.682545 l 1.079181,0.353471 c 5.617996,1.836171 10.106763,5.668045 12.925145,10.519667 H 19.677495 c 2.818382,-4.851622 7.307148,-8.683496 12.925144,-10.519667 z m 7.275869,45.660296 c -12.909505,0 -23.413531,-10.504027 -23.413531,-23.413531 0,-3.024835 0.638124,-5.912034 1.698536,-8.602166 h 43.426861 c 1.063541,2.687004 1.698537,5.577331 1.698537,8.602166 0.0031,12.909504 -10.500899,23.413531 -23.410403,23.413531 z"
     id="path2"
     style="fill:#5d576b;fill-opacity:1;stroke-width:3.12806" /><path
     d="m 28.088848,69.890251 c -2.633826,0 -4.776547,2.142722 -4.776547,4.776548 0,2.633827 2.142721,4.776548 4.776547,4.776548 2.630699,0 4.770292,-2.142721 4.770292,-4.776548 0,-2.633826 -2.139593,-4.776548 -4.770292,-4.776548 z m 0,6.425036 c -0.910265,0 -1.648487,-0.738222 -1.648487,-1.648488 0,-0.910265 0.738222,-1.648487 1.648487,-1.648487 0.907138,0 1.642232,0.738222 1.642232,1.648487 0,0.910266 -0.735094,1.648488 -1.642232,1.648488 z"
     id="path4"
     style="fill:#5d576b;fill-opacity:1;stroke-width:3.12806" /><path
     d="m 40.063063,83.381575 c -2.111441,0 -3.831874,1.717305 -3.831874,3.831874 0,2.114569 1.717305,3.831874 3.831874,3.831874 2.114569,0 3.831874,-1.717305 3.831874,-3.831874 0,-2.114569 -1.720433,-3.831874 -3.831874,-3.831874 z m -0.703813,3.831874 c 0,-0.387879 0.315934,-0.703813 0.703813,-0.703813 0.38788,0 0.703814,0.315934 0.703814,0.703813 0,0.775759 -1.407627,0.775759 -1.407627,0 z"
     id="path6"
     style="fill:#5d576b;fill-opacity:1;stroke-width:3.12806" /><path
     d="m 52.459566,69.890251 c -2.330405,0 -4.226009,1.895605 -4.226009,4.229138 0,2.330405 1.895604,4.222881 4.226009,4.222881 2.330405,0 4.229138,-1.892476 4.229138,-4.222881 0,-2.333533 -1.898733,-4.229138 -4.229138,-4.229138 z m 0,5.320831 c -0.603716,0 -1.097949,-0.491106 -1.097949,-1.094821 0,-0.606844 0.491105,-1.101077 1.097949,-1.101077 0.606844,0 1.101077,0.494233 1.101077,1.101077 0,0.603715 -0.494233,1.094821 -1.101077,1.094821 z"
     id="path8"
     style="fill:#5d576b;fill-opacity:1;stroke-width:3.12806" /><path
     d="m 32.19912,17.398271 c 2.142721,0 3.88505,-1.745457 3.88505,-3.888179 0,-2.142721 -1.742329,-3.8881785 -3.88505,-3.8881785 -2.14585,0 -3.888179,1.7454575 -3.888179,3.8881785 0,2.142722 1.745457,3.888179 3.888179,3.888179 z m 0,-4.648297 c 0.416032,0 0.75699,0.340958 0.75699,0.760118 0,0.844577 -1.517109,0.838321 -1.517109,0 0,-0.41916 0.340958,-0.760118 0.760119,-0.760118 z"
     id="path10"
     style="fill:#5d576b;fill-opacity:1;stroke-width:3.12806" /><path
     d="m 45.562193,17.398271 c 2.558753,0 4.642042,-2.086416 4.642042,-4.648297 0,-2.561882 -2.083289,-4.6482978 -4.642042,-4.6482978 -2.561881,0 -4.648297,2.0864158 -4.648297,4.6482978 0,2.561881 2.086416,4.648297 4.648297,4.648297 z m 0,-6.168535 c 0.835192,0 1.513981,0.681918 1.513981,1.520238 0,0.83832 -0.678789,1.520237 -1.513981,1.520237 -0.83832,0 -1.520237,-0.681917 -1.520237,-1.520237 0,-0.83832 0.681917,-1.520238 1.520237,-1.520238 z"
     id="path12"
     style="fill:#5d576b;fill-opacity:1;stroke-width:3.12806" /><path
     d="m 37.882805,8.4144822 c 2.321021,0 4.210369,-1.8893484 4.210369,-4.2072411 C 42.093174,1.8893484 40.203826,0 37.882805,0 c -2.321021,0 -4.210369,1.8893484 -4.210369,4.2072411 0,2.3178927 1.889348,4.2072411 4.210369,4.2072411 z m 0,-5.2864219 c 0.594332,0 1.082309,0.4848493 1.082309,1.0791808 0,0.5943315 -0.484849,1.0791808 -1.082309,1.0791808 -0.597459,0 -1.082309,-0.4848493 -1.082309,-1.0791808 0,-0.5943315 0.48485,-1.0791808 1.082309,-1.0791808 z"
     id="path14"
     style="fill:#5d576b;fill-opacity:1;stroke-width:3.12806" /></svg>
